<svg xmlns="http://www.w3.org/2000/svg" xmlns:xlink="http://www.w3.org/1999/xlink" width="91.306" height="159" viewBox="0 0 91.306 159">
  <defs>
    <radialGradient id="radial-gradient" cx="0.253" cy="0.295" r="0.71" gradientTransform="translate(0.156) scale(0.688 1)" gradientUnits="objectBoundingBox">
      <stop offset="0" stop-color="#565c6b"/>
      <stop offset="0.223" stop-color="#474c59"/>
      <stop offset="0.55" stop-color="#353a45"/>
      <stop offset="0.771" stop-color="#2f343e"/>
      <stop offset="0.992" stop-color="#2f343e"/>
    </radialGradient>
    <radialGradient id="radial-gradient-2" cx="0.305" cy="0.241" r="1.261" gradientTransform="translate(0.218) scale(0.564 1)" gradientUnits="objectBoundingBox">
      <stop offset="0" stop-color="#555a69"/>
      <stop offset="1" stop-color="#2f343e"/>
    </radialGradient>
    <linearGradient id="linear-gradient" x1="0.118" y1="0.373" x2="0.516" y2="0.546" gradientUnits="objectBoundingBox">
      <stop offset="0" stop-color="#535867"/>
      <stop offset="1" stop-color="#2f343e" stop-opacity="0"/>
    </linearGradient>
    <radialGradient id="radial-gradient-3" cx="0.326" cy="0.5" r="0.51" gradientTransform="matrix(0.299, 0.992, -1.265, 0.067, 0.861, 0.143)" gradientUnits="objectBoundingBox">
      <stop offset="0" stop-color="#505664"/>
      <stop offset="1" stop-color="#313641"/>
    </radialGradient>
    <radialGradient id="radial-gradient-4" cx="0.211" cy="0.465" r="0.44" gradientTransform="translate(-1.119) scale(3.237 1)" gradientUnits="objectBoundingBox">
      <stop offset="0.003" stop-color="#6a7081"/>
      <stop offset="1" stop-color="#2f343e"/>
    </radialGradient>
    <linearGradient id="linear-gradient-2" x1="0.04" y1="0.5" x2="1.001" y2="0.5" gradientUnits="objectBoundingBox">
      <stop offset="0" stop-color="#313641"/>
      <stop offset="0.233" stop-color="#373c47"/>
      <stop offset="0.556" stop-color="#474c59"/>
      <stop offset="0.93" stop-color="#606677"/>
      <stop offset="1" stop-color="#666c7d"/>
    </linearGradient>
    <radialGradient id="radial-gradient-5" cx="0.756" cy="0.272" r="0.604" xlink:href="#radial-gradient-4"/>
    <radialGradient id="radial-gradient-6" cx="0.323" cy="0.152" r="0.727" gradientUnits="objectBoundingBox">
      <stop offset="0" stop-color="#666c7d"/>
      <stop offset="0.084" stop-color="#606676"/>
      <stop offset="0.61" stop-color="#3d424d"/>
      <stop offset="0.883" stop-color="#2f343e"/>
    </radialGradient>
    <radialGradient id="radial-gradient-7" cx="0.323" cy="0.152" r="0.727" xlink:href="#radial-gradient-6"/>
  </defs>
  <g id="logo" transform="translate(0 -4.7)">
    <g id="Layer_2" transform="translate(0 4.7)">
      <path id="Path_1685" data-name="Path 1685" d="M65.967,19.011c4.82-4.266,3.718-10.5,3.718-10.5s-5.944,5.747-10.1,10.279c-.245.005-.49.016-.73.032C62.207,12.188,59.384,7.3,56.6,4.7c-1.294,2.652-2.216,10.753-2.04,14.53l-.1.016A45.548,45.548,0,0,0,16.2,56.747a21.985,21.985,0,0,1,43.211,5.726v.037a1.779,1.779,0,0,0,1.774,1.784h0a1.779,1.779,0,0,0,1.774-1.784v-.037c0-.357.011-.708.027-1.06A21.977,21.977,0,0,1,75.293,42.718c6.482-4.746,18.285-7.052,27.568,3.265A45.608,45.608,0,0,0,65.967,19.011Z" transform="translate(-15.337 -4.7)" fill="url(#radial-gradient)"/>
      <path id="Path_1686" data-name="Path 1686" d="M1153.168,650.178a45.246,45.246,0,0,1,3.078,9.992,21.99,21.99,0,0,0-30.646-13.257C1132.076,642.168,1143.879,639.862,1153.168,650.178Z" transform="translate(-1065.649 -608.901)" fill="url(#radial-gradient-2)"/>
      <path id="Path_1687" data-name="Path 1687" d="M339.291,19.011c4.82-4.266,3.718-10.5,3.718-10.5s-5.944,5.747-10.1,10.279c-.245.005-.49.016-.73.032,3.355-6.631.533-11.515-2.248-14.119-1.294,2.652-2.216,10.753-2.04,14.53l-.1.016A34.2,34.2,0,0,0,304.9,36.353C323.28,33.44,336.271,50,336.3,61.407a21.977,21.977,0,0,1,12.309-18.695c6.482-4.746,18.285-7.052,27.568,3.265A45.581,45.581,0,0,0,339.291,19.011Z" transform="translate(-288.661 -4.7)" fill="url(#linear-gradient)"/>
      <g id="Group_1040" data-name="Group 1040" transform="translate(0 79.396)">
        <path id="Path_1688" data-name="Path 1688" d="M0,1495.4v55.636C0,1567.217,8.223,1575,19.563,1575s14.567-5.1,13.491-18.157S24.873,1522.339,0,1495.4Z" transform="translate(0 -1495.4)" fill="url(#radial-gradient-3)"/>
        <path id="Path_1689" data-name="Path 1689" d="M19.131,1537.551c2.583,16.575-2.045,24.724-18.423,21.107A38.487,38.487,0,0,1,0,1551.036V1495.4C10.594,1512.364,16.548,1520.976,19.131,1537.551Z" transform="translate(0 -1495.4)" fill="url(#radial-gradient-4)"/>
      </g>
      <g id="Group_1041" data-name="Group 1041" transform="translate(58.057 79.396)">
        <path id="Path_1690" data-name="Path 1690" d="M1123.29,1495.4v55.636c0,16.181-8.223,23.967-19.563,23.967s-14.567-5.1-13.491-18.157S1098.417,1522.339,1123.29,1495.4Z" transform="translate(-1090.042 -1495.4)" fill="url(#linear-gradient-2)"/>
        <path id="Path_1691" data-name="Path 1691" d="M1343.193,1537.551c-2.583,16.575,2.045,24.724,18.423,21.107a38.525,38.525,0,0,0,.708-7.622V1495.4C1351.73,1512.364,1345.776,1520.976,1343.193,1537.551Z" transform="translate(-1329.075 -1495.4)" fill="url(#radial-gradient-5)"/>
      </g>
    </g>
    <g id="Layer_3" transform="translate(13.757 55.239)">
      <path id="Path_1692" data-name="Path 1692" d="M274.651,957.584a2.747,2.747,0,1,1-3.084-2.855,8.928,8.928,0,1,0,3.084,2.855Z" transform="translate(-258.3 -953.6)" fill="url(#radial-gradient-6)"/>
      <path id="Path_1693" data-name="Path 1693" d="M1139.151,957.584a2.747,2.747,0,1,1-3.084-2.855,8.928,8.928,0,1,0,3.084,2.855Z" transform="translate(-1076.756 -953.6)" fill="url(#radial-gradient-7)"/>
      <g id="Group_1042" data-name="Group 1042" transform="translate(21.896 28.859)">
        <path id="Path_1694" data-name="Path 1694" d="M669.986,1496.119l-.586.08c2.248,4.5,4.229,8.224,9.992,12.522h0c5.592-4.213,7.483-8.112,9.528-12.383A58.867,58.867,0,0,0,669.986,1496.119Z" transform="translate(-669.4 -1495.466)" fill="#f93"/>
        <path id="Path_1695" data-name="Path 1695" d="M699.334,1496.308c-2.045,4.266-3.931,8.17-9.528,12.383h0a39.368,39.368,0,0,0,7.206-11.36c-3.078-1.113-9.289-1.236-16.612-1.241A59.178,59.178,0,0,1,699.334,1496.308Z" transform="translate(-679.814 -1495.442)" fill="#e68a2e"/>
      </g>
    </g>
  </g>
</svg>
